<?xml version="1.0" encoding="utf-8"?>
<!-- Generator: Adobe Illustrator 16.0.0, SVG Export Plug-In . SVG Version: 6.00 Build 0)  -->
<!DOCTYPE svg PUBLIC "-//W3C//DTD SVG 1.1//EN" "http://www.w3.org/Graphics/SVG/1.1/DTD/svg11.dtd">
<svg version="1.1" id="Capa_1" xmlns="http://www.w3.org/2000/svg" xmlns:xlink="http://www.w3.org/1999/xlink" x="0px" y="0px"
	 width="56px" height="56px" viewBox="722 222 56 56" enable-background="new 722 222 56 56" xml:space="preserve">
<g>
	<path fill="#E9E9E0" d="M759.227,222h-29.001c-0.808,0-1.462,0.654-1.462,1.924v53.036c0,0.344,0.654,0.999,1.462,0.999h40.044
		c0.809,0,1.462-0.655,1.462-0.999v-41.992c0-0.694-0.093-0.918-0.257-1.083l-11.627-11.627
		C759.683,222.093,759.458,222,759.227,222z"/>
	<polygon fill="#D9D7CA" points="759.74,222.15 759.74,233.991 771.58,233.991 	"/>
	<path fill="#7A2B8B" d="M770.27,277.959h-40.044c-0.808,0-1.462-0.655-1.462-1.463v-15.525h42.968v15.525
		C771.731,277.304,771.078,277.959,770.27,277.959z"/>
	<path fill="#FFFFFF" d="M742.173,274.967l-1.898-3.647c-0.027,0-0.064,0.002-0.109,0.008c-0.045,0.005-0.116,0.007-0.211,0.007
		c-0.096,0-0.242,0-0.438,0c-0.197,0-0.463,0-0.799,0v3.633h-1.64v-10.068h2.896c0.428,0,0.851,0.068,1.27,0.204
		c0.419,0.139,0.794,0.343,1.127,0.615c0.333,0.272,0.602,0.604,0.807,0.991c0.206,0.387,0.308,0.821,0.308,1.305
		c0,0.729-0.169,1.348-0.506,1.857c-0.338,0.51-0.792,0.889-1.366,1.134l2.294,3.962H742.173z M738.718,270.13h1.489
		c0.199,0,0.399-0.033,0.601-0.103c0.2-0.067,0.383-0.179,0.547-0.335c0.164-0.154,0.295-0.37,0.396-0.647
		c0.099-0.278,0.149-0.622,0.149-1.031c0-0.164-0.022-0.354-0.067-0.566c-0.046-0.214-0.139-0.419-0.28-0.615
		c-0.141-0.195-0.34-0.359-0.595-0.491c-0.255-0.132-0.592-0.198-1.011-0.198h-1.229V270.13z"/>
	<path fill="#FFFFFF" d="M761.979,274.967l-1.899-3.647c-0.026,0-0.062,0.002-0.108,0.008c-0.046,0.005-0.116,0.007-0.212,0.007
		s-0.24,0-0.438,0c-0.196,0-0.463,0-0.799,0v3.633h-1.641v-10.068h2.896c0.429,0,0.852,0.068,1.271,0.204
		c0.419,0.139,0.794,0.343,1.127,0.615s0.603,0.604,0.807,0.991c0.205,0.387,0.308,0.821,0.308,1.305
		c0,0.729-0.169,1.348-0.506,1.857c-0.338,0.51-0.792,0.889-1.365,1.134l2.295,3.962H761.979z M758.522,270.13h1.488
		c0.199,0,0.399-0.033,0.602-0.103c0.2-0.067,0.383-0.179,0.547-0.335c0.163-0.154,0.295-0.37,0.396-0.647
		c0.1-0.278,0.149-0.622,0.149-1.031c0-0.164-0.022-0.354-0.067-0.566c-0.046-0.214-0.139-0.419-0.28-0.615
		c-0.141-0.195-0.34-0.359-0.595-0.491s-0.592-0.198-1.011-0.198h-1.229V270.13z"/>
	<path fill="#FFFFFF" d="M745.923,274.961l3.525-10.056h1.626l3.497,10.056h-1.693l-0.725-2.091h-3.784l-0.737,2.091H745.923z
		 M748.751,271.765h3.005l-1.488-4.346L748.751,271.765z"/>
	<rect x="736.578" y="236.465" fill="#7A2B8B" width="18.227" height="2.414"/>
	<polygon fill="#7A2B8B" points="754.805,241.969 757.886,241.969 757.886,242.765 757.886,243.671 757.886,244.7 757.886,245.607 
		757.886,246.661 757.886,247.568 757.886,248.792 754.805,248.792 754.805,251.745 736.578,251.745 736.578,254.156 
		754.805,254.156 754.805,251.882 763.918,251.882 763.918,248.792 758.825,248.792 758.825,247.568 760.835,247.568 
		760.835,246.661 758.825,246.661 758.825,245.607 760.835,245.607 760.835,244.7 758.825,244.7 758.825,243.671 760.835,243.671 
		760.835,242.765 758.825,242.765 758.825,241.969 763.918,241.969 763.918,238.879 754.805,238.879 	"/>
	<rect x="738.922" y="240.12" fill="#7A2B8B" width="13.538" height="10.523"/>
</g>
</svg>
